<svg width="40" height="39" viewBox="0 0 40 39" fill="none" xmlns="http://www.w3.org/2000/svg">
<path d="M6.01751 27.934L19.9809 38.0953L24.8025 34.5794L7.86901 22.2544L6.01751 27.934ZM21.2152 30.2135L26.0368 33.7294L40.0002 23.5681L38.1487 17.8885L21.2152 30.2135ZM5.3232 7.10904L0.000152607 23.5681L4.82175 27.084L11.2634 7.14767L5.3232 7.10904ZM7.63757 0.0386072L5.78607 5.71813H26.7311L24.8796 -2.90644e-05L7.63757 0.0386072ZM32.3242 -2.90644e-05H26.384L32.8642 19.9363L37.6858 16.4204L32.3242 -2.90644e-05Z" fill="#965592"/>
<path d="M19.0463 19.9922V16.8327C20.2001 16.779 21.1057 16.5308 21.7631 16.0881C22.4205 15.6319 22.7492 14.9477 22.7492 14.0354V13.7537C22.7492 13.0024 22.5211 12.4389 22.065 12.0632C21.6222 11.6876 21.0118 11.4997 20.2337 11.4997C19.4287 11.4997 18.7847 11.7211 18.3017 12.1638C17.8188 12.6066 17.4834 13.1701 17.2955 13.8543L15.7862 13.2908C15.9204 12.8481 16.1082 12.4322 16.3497 12.0431C16.5912 11.6406 16.893 11.2918 17.2553 10.9966C17.6309 10.7015 18.067 10.4667 18.5634 10.2923C19.0732 10.1179 19.6501 10.0307 20.294 10.0307C20.938 10.0307 21.5149 10.1246 22.0247 10.3124C22.5479 10.4868 22.9907 10.7417 23.3529 11.0771C23.7152 11.3991 23.9969 11.7949 24.1981 12.2645C24.3994 12.734 24.5 13.2573 24.5 13.8342C24.5 14.4647 24.386 15.0215 24.1579 15.5045C23.9298 15.974 23.6347 16.3765 23.2724 16.7119C22.9102 17.0473 22.4943 17.3224 22.0247 17.537C21.5686 17.7383 21.1057 17.8791 20.6361 17.9596V19.9922H19.0463ZM19.9117 24.5C19.3616 24.5 18.9725 24.386 18.7445 24.1579C18.5298 23.9298 18.4225 23.6414 18.4225 23.2925V22.9303C18.4225 22.5815 18.5298 22.293 18.7445 22.065C18.9725 21.8369 19.3616 21.7229 19.9117 21.7229C20.4617 21.7229 20.8441 21.8369 21.0588 22.065C21.2868 22.293 21.4009 22.5815 21.4009 22.9303V23.2925C21.4009 23.6414 21.2868 23.9298 21.0588 24.1579C20.8441 24.386 20.4617 24.5 19.9117 24.5Z" fill="#965592"/>
</svg>
