<svg width="17" height="16" viewBox="0 0 17 16" fill="none" xmlns="http://www.w3.org/2000/svg">
<g clip-path="url(#clip0_18_294)">
<path d="M8.41962 12.8214C8.12798 12.5306 7.84477 12.2486 7.56366 11.9684C7.79721 11.7352 8.01481 11.5179 8.22911 11.3036C8.89064 11.9651 9.5576 12.6324 10.2246 13.2993C9.56392 13.96 8.89817 14.626 8.23422 15.29C8.01752 15.073 7.80052 14.856 7.57449 14.6293C7.85379 14.3515 8.13882 14.0683 8.44039 13.7689C8.39133 13.7658 8.36575 13.7631 8.34017 13.7631C7.22416 13.7631 6.10846 13.7664 4.99245 13.7613C4.53256 13.7592 4.09465 13.6521 3.69105 13.426C3.16224 13.1299 2.80589 12.6835 2.58287 12.1264C2.42154 11.7237 2.36556 11.3033 2.36616 10.8708C2.36917 9.29098 2.36737 7.71118 2.36737 6.13137C2.36737 5.47676 2.36617 4.82244 2.36948 4.16783C2.36978 4.09921 2.3472 4.07573 2.2849 4.05617C1.46295 3.79884 0.949187 3.25167 0.804419 2.40082C0.671389 1.6192 0.935643 0.96428 1.54301 0.457141C1.93728 0.127878 2.40017 -0.0171911 2.91424 0.00146921C3.54206 0.0246441 4.05312 0.287995 4.4501 0.767143C4.69238 1.05969 4.83925 1.40039 4.88621 1.78052C4.96927 2.45379 4.77786 3.03798 4.30503 3.52405C4.05251 3.78379 3.74703 3.96317 3.39549 4.05587C3.32235 4.07513 3.30339 4.10673 3.30369 4.17897C3.3061 5.15442 3.3049 6.12957 3.3052 7.10502C3.3052 8.36128 3.30791 9.61754 3.3043 10.8738C3.30339 11.1748 3.33379 11.4679 3.44214 11.7496C3.66005 12.3155 4.05402 12.676 4.65988 12.7883C4.93075 12.8385 5.20403 12.825 5.47671 12.8253C6.43471 12.8262 7.3924 12.8256 8.3504 12.8253C8.36996 12.8253 8.38983 12.8232 8.41962 12.8211V12.8214ZM2.83869 3.19479C3.41174 3.20532 3.97035 2.74574 3.97125 2.06584C3.97185 1.42025 3.4614 0.936289 2.8405 0.933882C2.21147 0.931775 1.70974 1.43831 1.70944 2.06433C1.70944 2.69276 2.21056 3.19449 2.83869 3.19449V3.19479Z" fill="#306FD2"/>
<path d="M8.50651 2.52722L8.49748 2.54949C8.63863 2.68974 8.77979 2.82969 8.92094 2.96995C9.0624 3.1102 9.20356 3.25076 9.3417 3.388C9.12049 3.60861 8.90409 3.82441 8.6895 4.0387L6.7085 2.0571C7.36793 1.39797 8.03037 0.735529 8.691 0.0751953C8.90439 0.288585 9.12049 0.504683 9.34833 0.732218C9.06842 1.01152 8.78521 1.29413 8.48423 1.5945C8.5369 1.5945 8.5676 1.5945 8.5983 1.5945C9.71882 1.5945 10.8396 1.58517 11.9599 1.59872C12.6139 1.60654 13.2023 1.82023 13.6841 2.27801C14.0965 2.66958 14.3433 3.15595 14.4531 3.70914C14.4944 3.91741 14.5145 4.13351 14.5154 4.34599C14.5214 5.43642 14.5181 6.52684 14.5181 7.61726C14.5181 8.78233 14.519 9.94769 14.5163 11.1128C14.5163 11.1958 14.5371 11.2301 14.6214 11.2566C15.4301 11.5118 15.9294 12.059 16.082 12.8909C16.197 13.5178 16.0302 14.0873 15.6134 14.5742C15.2685 14.9769 14.8293 15.2144 14.3011 15.2734C13.5959 15.352 13.0003 15.1241 12.5209 14.6046C12.2347 14.2943 12.0667 13.9217 12.0128 13.5031C11.8807 12.4819 12.5121 11.5344 13.4858 11.2563C13.5613 11.2346 13.5866 11.2073 13.5866 11.1263C13.5842 8.84794 13.5857 6.56958 13.5836 4.29122C13.583 3.80755 13.4292 3.37506 13.1008 3.01509C12.8354 2.72375 12.4935 2.57176 12.1049 2.54708C11.7645 2.52541 11.4223 2.52902 11.0807 2.52812C10.2473 2.52571 9.41364 2.52752 8.58024 2.52752H8.50651V2.52722ZM14.067 14.4225C14.6644 14.4349 15.1995 13.944 15.1998 13.2945C15.1998 12.6483 14.6704 12.165 14.0682 12.1635C13.4677 12.1619 12.9389 12.6525 12.9359 13.2861C12.9329 13.9187 13.4355 14.4222 14.067 14.4225Z" fill="#306FD2"/>
</g>
<defs>
<clipPath id="clip0_18_294">
<rect width="15.3469" height="15.29" fill="white" transform="translate(0.770752)"/>
</clipPath>
</defs>
</svg>
