<svg width="19" height="19" viewBox="0 0 19 19" fill="none" xmlns="http://www.w3.org/2000/svg">
<path d="M14.4667 9.10693L10.8668 9.0801" stroke="#306FD2" stroke-width="0.7"/>
<path d="M6.04895 11.4442L3.62665 14.4262" stroke="#306FD2" stroke-width="0.7"/>
<path d="M6.08488 6.64445L3.70731 3.62664" stroke="#306FD2" stroke-width="0.7"/>
<path d="M7.84263 12.3077C6.04775 12.2943 4.60357 10.8284 4.61695 9.03352C4.63033 7.23864 6.09621 5.79445 7.89108 5.80783C9.68596 5.82121 11.1301 7.2871 11.1168 9.08197C11.1034 10.8768 9.6375 12.321 7.84263 12.3077Z" stroke="#306FD2" stroke-width="0.7"/>
<circle cx="2.41775" cy="15.6172" r="2.05" transform="rotate(90.4271 2.41775 15.6172)" stroke="#306FD2" stroke-width="0.7"/>
<path d="M16.2509 11.2458C15.1187 11.2374 14.2078 10.3128 14.2162 9.1806C14.2246 8.04845 15.1493 7.1375 16.2814 7.14594C17.4136 7.15438 18.3245 8.07901 18.3161 9.21117C18.3076 10.3433 17.383 11.2543 16.2509 11.2458Z" stroke="#306FD2" stroke-width="0.7"/>
<circle cx="2.5162" cy="2.41781" r="2.05" transform="rotate(90.4271 2.5162 2.41781)" stroke="#306FD2" stroke-width="0.7"/>
</svg>
