<?xml version="1.0" encoding="UTF-8"?>
<svg width="16px" height="16px" viewBox="0 0 16 16" version="1.1" xmlns="http://www.w3.org/2000/svg" xmlns:xlink="http://www.w3.org/1999/xlink">
    <title>编组 26</title>
    <g id="页面-1" stroke="none" stroke-width="1" fill="none" fill-rule="evenodd">
        <g id="主页面备份" transform="translate(-745.000000, -604.000000)" fill="#bd7c40">
            <g id="编组-26" transform="translate(745.000000, 604.000000)">
                <path d="M14,0 C15.1045695,-2.02906125e-16 16,0.8954305 16,2 L16,14 C16,15.1045695 15.1045695,16 14,16 L2,16 C0.8954305,16 1.3527075e-16,15.1045695 0,14 L0,2 C-1.3527075e-16,0.8954305 0.8954305,2.02906125e-16 2,0 L14,0 Z M8,3 C7.53666992,3 7.16666992,3.37416992 7.16666992,3.83541992 L7.16666992,7.16666992 L3.83541992,7.16666992 C3.61411325,7.16633818 3.40174492,7.25396195 3.24506144,7.41025347 C3.08837797,7.566545 3.00022256,7.77869319 3,8 C3,8.46333008 3.37416992,8.83333008 3.83541992,8.83333008 L7.16666992,8.83333008 L7.16666992,12.1645801 C7.16666992,12.62625 7.53958008,13 8,13 C8.46333008,13 8.83333008,12.6258301 8.83333008,12.1645801 L8.83333008,8.83333008 L12.1645801,8.83333008 C12.3858867,8.83366182 12.5982551,8.74603805 12.7549386,8.58974653 C12.911622,8.433455 12.9997774,8.22130681 13,8 C13,7.53666992 12.6258301,7.16666992 12.1645801,7.16666992 L8.83333008,7.16666992 L8.83333008,3.83541992 C8.83366182,3.61411325 8.74603805,3.40174492 8.58974653,3.24506144 C8.433455,3.08837797 8.22130681,3.00022256 8,3 Z" id="形状结合"></path>
            </g>
        </g>
    </g>
</svg>