<?xml version="1.0" standalone="no"?><!DOCTYPE svg PUBLIC "-//W3C//DTD SVG 1.1//EN" "http://www.w3.org/Graphics/SVG/1.1/DTD/svg11.dtd"><svg t="1684917559989" class="icon" viewBox="0 0 1024 1024" version="1.1" xmlns="http://www.w3.org/2000/svg" p-id="3305" xmlns:xlink="http://www.w3.org/1999/xlink" width="32" height="32"><path d="M832 64H296a8 8 0 0 0-8 8V128c0 4.416 3.584 8 8 8h496v688c0 4.416 3.584 8 8 8h56a8 8 0 0 0 8-8V96A32 32 0 0 0 832 64z m-128 128H192a32 32 0 0 0-32 32v530.688a32 32 0 0 0 9.408 22.592l173.312 173.312a33.088 33.088 0 0 0 7.36 5.504v1.92h4.224c3.52 1.28 7.168 1.984 11.008 1.984H704a32 32 0 0 0 32-32v-704A32 32 0 0 0 704 192zM382.016 896h-0.192l-149.824-149.76v-0.256h150.016V896z" p-id="3306" fill="#7d7d7d"></path></svg>