<?xml version="1.0" encoding="UTF-8"?>
<svg width="18px" height="18px" viewBox="0 0 18 18" version="1.1" xmlns="http://www.w3.org/2000/svg" xmlns:xlink="http://www.w3.org/1999/xlink">
    <title>切片</title>
    <g id="页面-1" stroke="none" stroke-width="1" fill="none" fill-rule="evenodd">
        <g id="主页面备份" transform="translate(-1163.000000, -464.000000)">
            <g id="编组-21" transform="translate(1163.000000, 464.000000)">
                <circle id="椭圆形备份-8" fill="#FF0000" cx="9" cy="9" r="9"></circle>
                <path d="M9,4.3359375 C11.4086973,4.3359375 13.3613281,6.28856836 13.3613281,8.69726562 L13.3613281,11.8828125 C13.3613281,12.1244355 13.1654512,12.3203125 12.9238281,12.3203125 L5.07617187,12.3203125 C4.83454883,12.3203125 4.63867187,12.1244355 4.63867187,11.8828125 L4.63867187,8.69726562 C4.63867187,6.28856836 6.59130273,4.3359375 9,4.3359375 Z M8.6171875,1.9296875 L9.3828125,1.9296875 C9.44321864,1.9296875 9.4921875,1.97865636 9.4921875,2.0390625 L9.4921875,3.3515625 C9.4921875,3.41196864 9.44321864,3.4609375 9.3828125,3.4609375 L8.6171875,3.4609375 C8.55678136,3.4609375 8.5078125,3.41196864 8.5078125,3.3515625 L8.5078125,2.0390625 C8.5078125,1.97865636 8.55678136,1.9296875 8.6171875,1.9296875 Z M4.4234082,3.62031055 C4.44392016,3.59979754 4.47174097,3.58827336 4.50075,3.58827336 C4.52975903,3.58827336 4.55757984,3.59979754 4.5780918,3.62031055 L5.50616602,4.54838477 C5.52667903,4.56889672 5.5382032,4.59671753 5.5382032,4.62572656 C5.5382032,4.65473559 5.52667903,4.68255641 5.50616602,4.70306836 L4.96478711,5.24444727 C4.94427516,5.26496028 4.91645434,5.27648445 4.88744531,5.27648445 C4.85843628,5.27648445 4.83061547,5.26496028 4.81010352,5.24444727 L3.8820293,4.31637305 C3.86151629,4.29586109 3.84999211,4.26804028 3.84999211,4.23903125 C3.84999211,4.21002222 3.86151629,4.18220141 3.8820293,4.16168945 L4.4234082,3.62031055 L4.4234082,3.62031055 Z M13.5780684,3.62031055 L14.1194473,4.16168945 C14.1399603,4.18220141 14.1514845,4.21002222 14.1514845,4.23903125 C14.1514845,4.26804028 14.1399603,4.29586109 14.1194473,4.31637305 L13.191373,5.24444727 C13.1708611,5.26496028 13.1430403,5.27648445 13.1140312,5.27648445 C13.0850222,5.27648445 13.0572014,5.26496028 13.0366895,5.24444727 L12.4953105,4.70306836 C12.4747975,4.68255641 12.4632734,4.65473559 12.4632734,4.62572656 C12.4632734,4.59671753 12.4747975,4.56889672 12.4953105,4.54838477 L13.4233848,3.62031055 C13.4438967,3.59979754 13.4717175,3.58827336 13.5007266,3.58827336 C13.5297356,3.58827336 13.5575564,3.59979754 13.5780684,3.62031055 L13.5780684,3.62031055 Z M4.625,13.1953125 L13.375,13.1953125 C13.616623,13.1953125 13.8125,13.3911895 13.8125,13.6328125 L13.8125,13.9609375 C13.8125,14.0213436 13.7635311,14.0703125 13.703125,14.0703125 L4.296875,14.0703125 C4.23646886,14.0703125 4.1875,14.0213436 4.1875,13.9609375 L4.1875,13.6328125 C4.1875,13.3911895 4.38337695,13.1953125 4.625,13.1953125 Z M6.6484375,8.86132812 L6.6484375,12.3203125 L7.5234375,12.3203125 L7.5234375,8.86132812 L6.6484375,8.86132812 Z" id="形状备份-2" fill="#333333" fill-rule="nonzero"></path>
            </g>
        </g>
    </g>
</svg>