<svg width="50" height="50" viewBox="0 0 50 50" fill="none" xmlns="http://www.w3.org/2000/svg">
<g clip-path="url(#clip0_6372_7235)">
<path opacity="0.8" d="M47.1036 35C47.1036 43.2632 40.2878 49.9737 31.8931 49.9737H3.15625V39.9737H31.8931C34.6563 39.9737 36.8931 37.7368 36.8931 34.9737C36.8931 32.2105 34.6563 29.9737 31.8931 29.9737H21.7615V20H31.8931C34.6563 20 36.8931 17.7632 36.8931 15C36.8931 12.2368 34.6563 10 31.8931 10H3.15625V0H31.8931C40.2878 0.0263158 47.1036 6.73684 47.1036 15C47.1036 18.7105 45.7352 22.2632 43.2352 25C45.7352 27.7368 47.1036 31.3158 47.1036 35Z" fill="#FE815F"/>
<path opacity="0.12" d="M3.15625 39.9737H27.8405C22.6036 46.0263 14.2615 49.9737 4.86678 49.9737C4.28783 49.9737 3.7352 49.9474 3.18257 49.921C3.15625 49.9474 3.15625 39.9737 3.15625 39.9737ZM32.9984 29.9737H23.4457V20H32.9984C33.7615 23.2895 33.7615 26.7105 32.9984 29.9737ZM27.8405 10H3.15625V0.0526308C3.70888 0.026315 4.28783 0 4.84046 0C14.2352 0.0263158 22.5773 3.94737 27.8405 10Z" fill="black"/>
<path d="M3.15625 0.0253906C17.1563 0.0253906 28.4984 11.2096 28.4984 24.9991C28.4984 38.7886 17.1563 49.9728 3.15625 49.9728V39.9728C11.551 39.9728 18.3668 33.2622 18.3668 24.9991C18.3668 16.7359 11.551 10.0254 3.15625 10.0254V0.0253906Z" fill="#FF6238"/>
</g>
<defs>
<clipPath id="clip0_6372_7235">
<rect width="50" height="50" fill="white"/>
</clipPath>
</defs>
</svg>
