<?xml version="1.0" encoding="UTF-8"?>
<svg width="14px" height="14px" viewBox="0 0 14 14" version="1.1" xmlns="http://www.w3.org/2000/svg" xmlns:xlink="http://www.w3.org/1999/xlink">
    <title>编组 6</title>
    <g id="页面-1" stroke="none" stroke-width="1" fill="none" fill-rule="evenodd">
        <g id="主页面备份" transform="translate(-904.000000, -691.000000)" fill="#FF0000" fill-rule="nonzero">
            <g id="编组-6" transform="translate(904.843750, 691.275000)">
                <path d="M10.80625,4.55 C10.465,4.55 10.2375,4.7775 10.2375,5.11875 L10.2375,11.83 C10.2375,12.285 9.89625,12.5125 9.555,12.5125 L2.9575,12.5125 C2.5025,12.5125 2.275,12.17125 2.275,11.83 L2.275,5.11875 C2.275,4.7775 2.0475,4.55 1.70625,4.55 C1.365,4.55 1.1375,4.7775 1.1375,5.11875 L1.1375,11.83 C1.1375,12.85375 1.93375,13.65 2.9575,13.65 L9.44125,13.65 C10.465,13.65 11.26125,12.85375 11.26125,11.83 L11.26125,5.11875 C11.375,4.7775 11.1475,4.55 10.80625,4.55 Z" id="路径"></path>
                <path d="M5.34625,10.80625 L5.34625,5.11875 C5.34625,4.7775 5.11875,4.55 4.89125,4.55 C4.66375,4.55 4.20875,4.7775 4.20875,5.11875 L4.20875,10.80625 C4.20875,11.1475 4.43625,11.375 4.7775,11.375 C5.11875,11.375 5.34625,11.1475 5.34625,10.80625 Z M8.30375,10.80625 L8.30375,5.11875 C8.30375,4.7775 7.9625,4.55 7.62125,4.55 C7.28,4.55 7.16625,4.7775 7.16625,5.11875 L7.16625,10.80625 C7.16625,11.1475 7.39375,11.375 7.62125,11.375 C7.84875,11.375 8.30375,11.1475 8.30375,10.80625 Z M11.94375,2.275 L9.1,2.275 L9.1,1.47875 C9.1,0.6825 8.4175,0 7.62125,0 L4.89125,0 C4.095,0 3.4125,0.6825 3.4125,1.47875 L3.4125,2.275 L0.56875,2.275 C0.2275,2.275 0,2.5025 0,2.84375 C0,3.185 0.2275,3.4125 0.56875,3.4125 L11.94375,3.4125 C12.285,3.4125 12.5125,3.185 12.5125,2.84375 C12.5125,2.5025 12.285,2.275 11.94375,2.275 Z M4.55,1.47875 C4.55,1.25125 4.66375,1.1375 4.89125,1.1375 L7.62125,1.1375 C7.84875,1.1375 7.9625,1.25125 7.9625,1.47875 L7.9625,2.275 L4.55,2.275 L4.55,1.47875 Z" id="形状"></path>
            </g>
        </g>
    </g>
</svg>