<?xml version="1.0" encoding="UTF-8"?>
<svg width="18px" height="18px" viewBox="0 0 18 18" version="1.1" xmlns="http://www.w3.org/2000/svg" xmlns:xlink="http://www.w3.org/1999/xlink">
    <title>编组 12</title>
    <g id="页面-1" stroke="none" stroke-width="1" fill="none" fill-rule="evenodd">
        <g id="主页面备份" transform="translate(-783.000000, -414.000000)">
            <g id="编组-12" transform="translate(783.000000, 414.000000)">
                <circle id="椭圆形备份-14" fill="#FFF100" cx="9" cy="9" r="9"></circle>
                <g id="故障:故障管理备份-6" transform="translate(4.000000, 4.000000)" fill="#303135" fill-rule="nonzero">
                    <rect id="矩形" opacity="0" x="0" y="0" width="10" height="10"></rect>
                    <path d="M9.33749537,8.79999588 C9.18347846,8.80013686 9.04672027,8.70152516 8.99820863,8.55534769 L7.44106185,3.89822348 L7.44106185,3.88392661 L6.30535017,0.491078472 C6.20873907,0.197400018 5.93415964,-0.000789992999 5.62499933,2.36723849e-06 L4.71428741,2.36723849e-06 C4.40738902,0.000237322232 4.13494161,0.196485328 4.03750103,0.487504257 L1.34107812,8.55534769 C1.29256648,8.70152516 1.15580829,8.80013686 1.00179137,8.79999588 L0.600004693,8.79999588 C0.440729358,8.79951934 0.28784014,8.86258034 0.175214967,8.97520552 C0.0625897944,9.0878307 -0.000471203734,9.24071993 2.65130075e-06,9.39999527 C-0.000471203734,9.55927062 0.0625897944,9.71215984 0.175214967,9.82478502 C0.28784014,9.9374102 0.440729358,10.0004712 0.600004693,10.0000024 L9.39999531,10.0000024 C9.55927064,10.0004712 9.71215986,9.9374102 9.82478503,9.82478502 C9.93741021,9.71215984 10.0004712,9.55927062 10.0000027,9.39999527 C10.0004712,9.24071993 9.93741021,9.0878307 9.82478503,8.97520552 C9.71215986,8.86258034 9.55927064,8.79951934 9.39999531,8.79999588 L9.33749537,8.79999588 Z M4.88571301,0.892865177 L5.4910737,0.892865177 C5.57253226,0.894768716 5.64400585,0.947659572 5.66963796,1.02500372 C5.68793003,1.07635259 5.68385154,1.13301894 5.65839455,1.18121903 C5.63293757,1.22941912 5.58843519,1.2647355 5.53571232,1.27857768 L4.85535172,1.45715172 C4.79323154,1.47197731 4.72792293,1.4524996 4.68407185,1.40606904 C4.64022076,1.35963848 4.62450371,1.2933243 4.64285194,1.23215194 L4.71250031,1.01786505 C4.73620623,0.942452662 4.80667253,0.891600287 4.88571301,0.892865177 L4.88571301,0.892865177 Z M4.04821391,3.36428847 L5.98928605,2.84464055 C6.17385405,2.79063313 6.3680467,2.8924674 6.4285727,3.07500165 L6.64107247,3.70892679 C6.67253201,3.8024485 6.66389775,3.90481849 6.61721814,3.99174966 C6.57053854,4.07868083 6.48997359,4.14242604 6.39463718,4.16786188 L3.98037218,4.82142567 C3.85347286,4.85570879 3.71799863,4.81751189 3.62769797,4.72198932 C3.53739731,4.62646675 3.50686871,4.48906123 3.5482242,4.36428746 L3.80179815,3.60536244 C3.8371512,3.48805512 3.93016854,3.39705781 4.04822367,3.36428847 L4.04821391,3.36428847 Z M2.84642808,6.98034927 L6.99821076,5.86607305 C7.18102112,5.81664176 7.37063191,5.91849795 7.43034897,6.09821149 L7.75356152,7.06963629 C7.78449784,7.16268428 7.77581582,7.26435905 7.72955165,7.35081488 C7.68328747,7.43727072 7.60351126,7.50090162 7.50893287,7.52678427 L2.8053539,8.78749589 C2.77514635,8.7960297 2.74388158,8.80023823 2.71249267,8.80000578 L2.56785416,8.80000578 C2.45307503,8.80010306 2.34523901,8.74503797 2.27802432,8.65199795 C2.21080962,8.55895793 2.19240836,8.43928268 2.22856741,8.33034791 L2.60000256,7.21249748 C2.63791822,7.09862365 2.73049651,7.01140914 2.84642808,6.98034927 L2.84642808,6.98034927 Z" id="形状"></path>
                </g>
            </g>
        </g>
    </g>
</svg>